<svg id="visual" viewBox="0 0 900 600" width="900" height="600" xmlns="http://www.w3.org/2000/svg" xmlns:xlink="http://www.w3.org/1999/xlink" version="1.1"><rect x="0" y="0" width="900" height="600" fill="#931C1C"></rect><path d="M0 285L180 274L360 286L540 346L720 352L900 302L900 601L720 601L540 601L360 601L180 601L0 601Z" fill="#f5730a"></path><path d="M0 298L180 355L360 354L540 310L720 366L900 297L900 601L720 601L540 601L360 601L180 601L0 601Z" fill="#e7670a"></path><path d="M0 376L180 406L360 388L540 351L720 401L900 337L900 601L720 601L540 601L360 601L180 601L0 601Z" fill="#da5b09"></path><path d="M0 395L180 419L360 369L540 363L720 382L900 422L900 601L720 601L540 601L360 601L180 601L0 601Z" fill="#cc4f08"></path><path d="M0 445L180 412L360 453L540 454L720 459L900 438L900 601L720 601L540 601L360 601L180 601L0 601Z" fill="#be4407"></path><path d="M0 445L180 453L360 433L540 455L720 466L900 471L900 601L720 601L540 601L360 601L180 601L0 601Z" fill="#b03806"></path><path d="M0 508L180 488L360 480L540 512L720 469L900 484L900 601L720 601L540 601L360 601L180 601L0 601Z" fill="#a32d04"></path><path d="M0 539L180 519L360 506L540 539L720 511L900 540L900 601L720 601L540 601L360 601L180 601L0 601Z" fill="#952103"></path><path d="M0 558L180 566L360 553L540 565L720 556L900 568L900 601L720 601L540 601L360 601L180 601L0 601Z" fill="#871400"></path></svg>