<?xml version="1.0" encoding="UTF-8" standalone="no"?>
<!-- Created with Inkscape (http://www.inkscape.org/) -->

<svg
   width="800"
   height="693"
   viewBox="0 0 211.66667 183.35625"
   version="1.1"
   id="svg1"
   xml:space="preserve"
   sodipodi:docname="cube2.svg"
   inkscape:export-filename="cube2.svg"
   inkscape:export-xdpi="96"
   inkscape:export-ydpi="96"
   inkscape:version="1.4 (86a8ad7, 2024-10-11)"
   xmlns:inkscape="http://www.inkscape.org/namespaces/inkscape"
   xmlns:sodipodi="http://sodipodi.sourceforge.net/DTD/sodipodi-0.dtd"
   xmlns="http://www.w3.org/2000/svg"
   xmlns:svg="http://www.w3.org/2000/svg"><sodipodi:namedview
     id="namedview1"
     pagecolor="#505050"
     bordercolor="#eeeeee"
     borderopacity="1"
     inkscape:showpageshadow="0"
     inkscape:pageopacity="0"
     inkscape:pagecheckerboard="0"
     inkscape:deskcolor="#505050"
     inkscape:document-units="px"
     inkscape:zoom="0.58225109"
     inkscape:cx="711.89218"
     inkscape:cy="471.44609"
     inkscape:window-width="1920"
     inkscape:window-height="1009"
     inkscape:window-x="-8"
     inkscape:window-y="-8"
     inkscape:window-maximized="1"
     inkscape:current-layer="layer1"><inkscape:page
       x="0"
       y="0"
       width="211.66667"
       height="183.35625"
       id="page2"
       margin="0"
       bleed="0" /></sodipodi:namedview><defs
     id="defs1" /><g
     inkscape:label="Layer 1"
     inkscape:groupmode="layer"
     id="layer1"><path
       id="path2"
       style="fill:#ffffff;stroke-width:2.78601;fill-opacity:1"
       d="M 128.63556 18.162199 L 38.595577 25.021212 L 74.822824 55.972295 L 130.39411 51.575664 L 128.63556 18.162199 z M 144.46302 23.614063 L 144.46302 50.344731 L 174.18317 48.058049 L 144.46302 23.614063 z M 27.34045 35.572506 L 29.099516 120.68824 L 66.029562 118.40259 L 65.326246 66.347889 L 27.34045 35.572506 z M 183.15161 61.423641 L 146.39727 64.41364 L 147.80442 115.76399 L 187.37306 147.24321 L 183.15161 61.423641 z M 130.39411 65.468356 L 80.626087 69.33737 L 81.329403 117.17114 L 132.85649 113.12643 L 130.39411 65.468356 z M 138.13214 127.19482 L 82.736553 131.41575 L 83.439869 165.70823 L 176.11793 158.14642 L 138.13214 127.19482 z M 66.205779 132.11959 L 37.012728 135.28425 L 67.612411 160.25637 L 66.205779 132.11959 z " /></g></svg>


