<?xml version="1.0" encoding="UTF-8" standalone="no"?>
<!-- Created with Inkscape (http://www.inkscape.org/) -->

<svg
   width="800"
   height="693"
   viewBox="0 0 211.66667 183.35625"
   version="1.1"
   id="svg1"
   xml:space="preserve"
   xmlns:inkscape="http://www.inkscape.org/namespaces/inkscape"
   xmlns:sodipodi="http://sodipodi.sourceforge.net/DTD/sodipodi-0.dtd"
   xmlns="http://www.w3.org/2000/svg"
   xmlns:svg="http://www.w3.org/2000/svg"><sodipodi:namedview
     id="namedview1"
     pagecolor="#505050"
     bordercolor="#eeeeee"
     borderopacity="1"
     inkscape:showpageshadow="0"
     inkscape:pageopacity="0"
     inkscape:pagecheckerboard="0"
     inkscape:deskcolor="#505050"
     inkscape:document-units="px"><inkscape:page
       x="0"
       y="0"
       width="211.66667"
       height="183.35625"
       id="page2"
       margin="0"
       bleed="0" /></sodipodi:namedview><defs
     id="defs1" /><g
     inkscape:label="Layer 1"
     inkscape:groupmode="layer"
     id="layer1"><path
       id="path1"
       style="opacity:1;fill:#ffffff;fill-opacity:1;stroke-width:2.66254"
       d="M 143.05623,2.8625996 13.272052,12.007424 15.43152,135.64431 68.491621,181.18393 203.2001,170.98421 196.51717,45.772201 Z m -14.42073,15.2998044 1.75864,33.413143 c 0,0 -54.86778,4.396852 -55.571214,4.396852 -0.703443,0 -36.227177,-30.951252 -36.227177,-30.951252 z m 15.82726,5.451735 29.72053,24.44414 -29.72053,2.286567 z m -117.122099,11.958349 37.985811,30.775435 0.70326,52.054417 -36.930421,2.2861 z m 155.811169,25.851142 4.22101,85.8197 -39.56862,-31.47919 -1.40701,-51.350681 z m -52.75769,4.044714 2.46239,47.658086 -51.526993,4.04472 -0.703261,-47.833887 z m 7.73782,61.726696 37.98579,30.95126 -92.677946,7.562 -0.70324,-34.29271 z m -71.926416,4.9243 1.407005,28.13722 -30.59962,-24.97207 z"
       sodipodi:nodetypes="cccccccccscccccccccccccccccccccccccccccc" /></g></svg>
